<svg xmlns="http://www.w3.org/2000/svg" viewBox="0 0 841.89 261.19"><defs><style>.cls-1{fill:#d1d3d4;}.cls-2{fill:#a7a9ac;}.cls-3{fill:#808285;}</style></defs><g id="Layer_2" data-name="Layer 2"><g id="Layer_2-2" data-name="Layer 2"><path class="cls-1" d="M791.26,202.73l0-2.47h.29l0,0v-.1l0-.21,0-.11v0l-.05-1.05h-.34l0-3.13h.19l0-.18,0-.29h0l0-.21v-.58h-.28l0-1.5h-1.57l-1.53-.13v-2l-.48,0v-.93l-.32,0,0-.23-.74-1.51-1.18-1.31-.22-.15-1.47-1-1.74-.58-.22-.05-.28,0v-.54h0l.17-.06,0-.06-.07-.05-.26-.12-.3-.09-.12,0-.26-.07h-.15l0,0V182.5h0l-.06,0-.07,0h-.2v-2.89h-.37v2.89h-.26l0,0v1.37h0l-.23,0h-.14l-.27.07-.24.08-.14.05-.27.12,0,.05.08.06.21.06h.09v.53l-.13,0-1.64.51-.31.12-1.54.93-1.19,1.27-.77,1.51-.06.18,0,.28-.5.06v2.81l-2.11.2-.14-.1-1.66,0,0,1.5h-.15l-.2.57.33.19-.07,3.9-.5.76.11,0,.24.09.14.06,0,2.92H753.44l1-22.49.1-28.46.16-39.52-3-34.23L751,70.16l-1.7-2.07L731,71.86V74l-2.64.13,0-2.19L718,69.56l-.48,8.34-2,34.82.45,38.28.33,27.61v.13l-1.42-.08,0-9.49-2.65-.21v-3.6l-2.7-.27h-.05v-8.55l-.08-.08-.28-.09-.45-.07-.59-.06-.69,0-.74,0h-.77l-.69,0-.6.06-.47.06-.29.08-.09.09v1.38l-8.13,0-.14-.74-8.51,0v-5.75l-.85-2.32-.6.08L670,149.05l-.71-.09,0,3.88v4.21l-9.39,0v.74l-7,0,0-1.29,0-.08-.22-.09-.4-.09-.55-.07L651,156l-.76,0-.78,0h-.73l-.68,0-.52.06-.36.06-.15.1,0,8.8-1.57-.13-2.3.26v3.62l-2.25.22-.06,9.53-.58,0-2,.12,0-2,0-102.39-2.35-.58L635.32,54l-12.81-4.06-8-.33-15,3.4-.49,19.66-4.72.84-.05,37.72-19.76,0-.23-83.4A207.29,207.29,0,0,1,531.21,8.36l-.93,102.74-18.28,0v-.7l.67-4-1.25-.16-.12-13.33.68-4-1.25-.18-.07-7.65.68-3.69-1.25-.18,0-6,.67-3.67-1.24-.19,0-4.92.66-3.63-1.23-.21v-2.3l.65-3.64-1-.18.35-2-.31-.05L509,48l-.35-.05.19-1-.66-.12.64-3.39-.65-.12.62-3.39-2.4-.44.32-2.1-.93-1.52-.28,0,.17-.91-.76-.16.18-1.15-1-1.7-.59-.12.11-.6-.21,0,.05-.24-.23,0,.06-.24-.23-.05,0-.24-.15,0,.09-.58L501.88,28l-.34-.06-.11-.16.09-.39-.24,0,.05-.26-.49-.1.09-.52-1.13-1.8-.34,0L499,23.9l-.07,0v-.07L497.8,22l-1.21.06-.26-.51-.64-2.71,0,0V17.18l-.24-.05.74-3.71h-.38l.64-4-2.77.79L492.83,0l-.67,8.5h0l-.5,1,0,.72-2.37-.36.36,2.17-.1-.06.89,4.86.09.47-.45.21v.12h0l-1.28,4.89-3.2.2.43,2.73-3.39.21.48,3-2.68.16.5,3.1-2.2.13.54,3.45-.37.17-2.11.92.63,3.3-.64.27.62,3.31-.64.27.62,3.32-.65.26.47,2.39-.11.06.33,1.72v.18l-.69.28.41,2.17-.59.23.66,3.53v0l-.52.21.3,1.48-.26.11.08.44-.81.3.66,3.56,0,4.28-.35.13.07.43-.93.33.67,3.56,0,5.4-.23.08.05.41-1,.34.65,3.58v7.07l-.12,0,.05.37-1.16.36.68,3.88-.07,13.09-1.23.32.67,3.94-.07,16.52-1.24.26.67,4.27-.1,21.45-1.25.19.68,5.23L472.85,184l-1.25.09.68,5.85-.12,19.24-1.91-.19,0-3.19-.06-99.5-2.32-.49-2.72-.43-3.08-.34-3.34-.28-3.53-.18-3.63-.08-3.65,0-3.57.1-3.39.21-2.8.25,0-2.5-2.89-.44,0,3.24.26,0-.48.07-2.06.38-.89-5.65h0l2.13.46,3,.48,3.31.41,3.49.3,3.63.2,3.71.1,3.7,0,3.63-.11,3.5-.23,2.92-.29v2.84l2.72.44v-3.44l-.68-.1,1.41-.2,2.71-.52v-.67l-2.34-.6-2.83-.52-3.26-.44-3.56-.35-3.79-.23-3.93-.1-3.94,0-3.84.15-3.62.25-3.3.38-2.93.46-1.94.44-.06,0-.14-.92.09-14v0l-.21,0-.09,0-.15,25,1.15,1.51L432,206h.07l0,3.15-.47.06,0-3.38-.49-.15-1.07-.17-1.59-.14-1-.05L426,98.41l-1.28-.3L424.64,93l.76-.37,1.32-.76.07-.42,0-1.55-2.16-.54-.16-11.84-8.13-2.29-.62.08-1.7.25-2.78.48-2.67.54-2.51.58-.13,0-.7,1.83-.64,1.85L404,82.67l-.25.84-.27,1L403,86.37l-.42,1.87-.35,1.84L402,91.72l-2.53-.53-.73.22-1.83.64-1.66.66-1.42.7-1.21.68-1,.71.15,64.58-9-4.89-4.83-.5-6.06.12-10,4.76.16,3-1.46,0,.31-41.59-.55,0,.05-5.7,5.35-2.08v-1.41l-5.31-.54-2.89.56-2.89.54-2.86.52-2.83.55-2.82.49-2.83.49-2.78.48-2.77.47-2.75.46-2.73.44-2.7.42-2.67.41-4.58,2.18,0,1.47,1.85-.21,0,1.82-1.85.82-.78,41L317.82,160l.05-22.82-.47,0v-.2l-3,0,0-11.66h0l.09,0h0l0,0,0,0v-.11h0l-.07-.06v-.26l0,0-.09,0-.14-17.28v0h0v0h0l0,0h-.09l-.08,0h-.28l-.07,0-.05,0h0l0,0v0h0l-.23,17.28-.08,0-.06,0V125h0l-.06,0h0v.08h0l.07,0,0,0,.09,0h0v11.68l-2.1,0H310l-4.17,0h-1.28l-1.74,0,.05-11.69h0l.09,0h0l0,0h0v0h0v-.06h0l0,0v-.23l0,0-.05,0-.07,0-.12-17.32h0l0,0,0,0-.06,0h-.51l-.05,0,0,0v0l-.28,17.29h0l-.09,0-.05,0v.23h0v0l0,0h0v0h0V125h0l0,0,0,0h0l.1,0h0l0,11.7-3.34,0v.2l-.29,0-.13,22.88-3.56,2.85.12-34.06v-.11l0-.06v-.11l0,0,0-.07,0,0,0-.05,0,0,0-.05,0,0-2.33-3.28-.06-.06-.05-.06,0,0-.07,0,0-.06-.07,0-.07,0,0,0-.07,0-.07,0V120L279,122.72l-11.17,4.67v-2.31l-7-.62h-.24l-.07,0h-.07l-6.25,1.45-.08,0h-.07l-.07,0,0,0-.07,0-.06,0-.06,0-3.12,2.73-.05,0,0,0,0,.06-.07.1,0,.05,0,.05,0,.06,0,.07v.19l.22,27.49-10.05-8.36-8.62-7.17-.71,0-.07-11.86v0h0l0-5.36h-.29l0,5.3-2.25.15,0-5.26h-.3l0,5.36h0l.07,11.83-1.47.08.13,18.35L218.69,166l.14-58.32-2.61-1.14,0-16.14-2.39-.74,0-8.88-3.48-.84v-7L208,72.68l0-3.24-.71-.11h-.14l-.05-12.66h-1.59l0,0,0,12.67h-.81l0,3.33-2.75.07,0,5.81-15.29.24-13.14,1,.17,8.53-6.94.69.37,15.59-7.31,1.08,2.58,94.19L154.7,203l-.94-100.36,0-.08-.11-.09-.22-.07-.29-.1-.37-.08-.45-.06-.53-.08-.59-.07-.66,0-.7-.06-.74,0-.79,0-24.7-.26h-2l-1,0-.86,0-.8.05-.68.08-.57.08-.45.08-.31.1-.17.09L120,214.73h-2.87l-.09-64.86h-2.47v-.56l-.09-.45-.73-.43-1.35-.4-1.87-.32-2.3-.24-2.51-.12h-2.56l-2.41.13-2.06.25-1.56.33-.11,0,.25-29.46-6.06-.88L62.46,112.5l-3.8-.56L58.92,151l-4,0,0-5.85h-.85l0,0H52.75l0-13.58h-.68v-4H51.2v0H50.11l0-11.61h-.34l0,.13,0,11.48H48.39v0h-.93l0,0-.66,1.79v2l-.86,0-1.5.05-1.5,0-1.5,0H36.92l-1.5,0-1.49,0-1.49-.05-1.48,0-1.43-.07v-2l0-1.8v0h-.85v0H27.33V116.18l0-.18h-.38v11.64H26v-.06H25v4h-.74v13.61H22.9v0h-.82L22,195.92H19c.12,2.31-11.77,7-11.77,7v54.89H841.89v-55ZM230.8,135.32l-1-2.36.95-2.47ZM228.59,130l2.2-.15v0l-1.09,2.82L228.59,130Zm0,.66,1,2.35-1,2.47Zm0,5.47,1.08-2.81,1.1,2.67v0l-2.18.13Zm0,.21,2.18-.11h0L229.73,139l-1.09-2.64Zm0,5.38,0-4.72,1,2.35-.91,2.37Zm.29,0,.8-2,.81,2Zm1.85-.11-.93-2.26.95-2.46,0,4.72Z"/><polygon class="cls-2" points="415.3 194.93 415.3 194.94 415.56 194.8 415.3 194.93"/><polygon class="cls-2" points="415.3 194.94 415.3 194.93 415.39 194.87 415.3 194.94"/><rect class="cls-2" x="415.28" y="194.94" width="0.02" transform="translate(-43.28 208.5) rotate(-26.84)"/><polygon class="cls-2" points="420.7 194.63 420.49 194.84 420.49 194.84 420.7 194.63"/><path class="cls-2" d="M841.89,236.79h0v-7.27h0V189.93h0V123l-14.71.52-.5,0-.5,0-.45.06-.45.06-.41.09-.37.06-.35.1-.31.1-.26.1-.22.1-.17.13-.13.11-2,.47v16.33l-1.8.33,0,48.32h.84v39.54h-4l.07-32.37-9.76-.32-1.39.11v1.9l-.07,0-2.58-.1-1.83.11v-7.58h-1.26v-9.34l-1.66,0h-.12l-.16,0H797l-.22,0h-2.67l-1.71,0-1.26,0v-4.88l-2.51-.24-3.06.18v8.33l-1.16.07v8.48l-1.23.05v3.68h-.82l-.47,0h-.11v-3.3l-2-.1v-3.12l-.4,0-2.13.12V175.55l-10,.62,0,17.85-1,0v42.73h-.12V217.73h-4.55l-.08-22.94-2.29-12.56-.12-41.41-1.16-3.48L758,99.05l-1-2.37-1-.19V94.63l-.71-.14V92.65l-1-.18v-2.9l-.92-.17-9.93,0-.9.17v2.89l-1.05.19v1.83l-.68.12V96.5l-1,.19-1,2.37-.09,38.27-1.14,3.49-.11,35.61h-.2v-.7l-.23,0-3,0-.24,0-.09.23v.47l-.43,0-.09.25v.4l-.35,0-.1.29v.38l-.38,0-.12.32v.64l-.4,0-.1.34,0,19.58-.25,2.17-.21-55.75V141.7l0-8.1h-.09v-3.1l0-6-9.07,0-.2-.67h-1.15v.66l-7.87,0-.47-.67h-1.17v.67l-8.6,0,.07,6v3.11h-.74l.09,8.14,0,3.43.41,40-10.69-.22-.57.13v2.89h-.24l-6.3,1V197l-4.27-.7-3.34.06-.07-18.16,0-.06V139l-2.49-4h-.08v-3.14l-.34-.56-29.24.94v73.77l-3.11.07v1.12l-4.45-2.58L637,79.13l-.93-.93-2.21-.85-3.35-.72-4.29-.52-4.92-.28-2.33,0V65.26l-1-8.8-5.06.21-4.6.52-3.82.79-2.8,1-1.58,1.09-.27,1.16,0,18.42-.18,143.67-.93.1-1.21.22-.19-25.87-.45-4.79-.57-4.29-.59-3.22-.74-2.16-.7-1.5-4.44-.4-2,.08-.69,1.48-.71,2.13-.55,3.22-.45,3.83-.19-43.37-.07-3.1,0-.36,0-.47-.13-3-.25-3.44-.33-3.42-.41-3.43-.49-3.39-.58-3.39-.65-3.36-.74-3.34-.81-3.33-.88-3.31-.77-2.57.08-.21.22-.82.1-.41,0-.09v-.09h-.64l0-.78-.08-.92-.08-.91-.09-.89-.1-.91-.12-.9-.12-.91-.16-.89-.15-.9-.18-.89-.17-.9-.21-.87-20.53-.1-.19.87-.2.9-.15.88-.16.9-.16.89-.13.91-.13.9-.09.91-.09.9-.09.91-.07.9,0,.79h-.63l.13,2.58-.49,1.62-.47,1.65-.43,1.64-.41,1.66-.4,1.67-.38,1.67-.37,1.68-.33,1.67-.32,1.69-.3,1.7-.28,1.7-.48,3.39-.42,3.43-.32,3.42-.26,3.46-.16,3.46v.91l-.08,2.55-.2,40.28-6-.22.43-107.88,0-13.77-42.8-.52,0,1.69.11,13.54.76,106.42h-1.44l0-5.72,0,0-.05,0-.09,0-.11,0-2.2,0v-5.33l0-.05,0-.06-.12-.07-.17,0-.23-.08-2.34-.11v-4.27l-.06-.13-.1-.11L494,172l-.19-.12-8.63-.6V168l0-.3v-.31h-.28l-.17-1.6H478.4l.05,5.47-8.44.57L470,172l0,.12.05,4.53-2.68.12-.07.06,0,.07v.06l.07,5.44-2.57.07h-.11l-.07,0,0,0v0l.07,5.74h-2.67l.11,6.51-2.27.05.51,33.26-3.1.53.14,8.19H452.5c-.05-4.85-.12-9.71-.08-14.6l-1.75.09.06-36.7h-.11v-1.45h-.68v0h-.38V184h-.07l0-.1h0l.24-.86-3.58-1,0,.13h0l-.11.33h0l-.05.16.15-.63h0l-.16.8-.08.24.07-1.06h0l0,1.1,0,0-.1-1.15h0l.1,1.15h0l-.27-1.13h0l.27,1.13h0l-.17-.42,0-.3h0l0,.24-.25-.61,0,0,.27.65,0,.18-.45-.77h0l.46.79v.08l-.59-.81v0l.62.81v.06l-.42-.44-.06-.11h0l0,.06-.27-.29h0l.34.35.09.16-.4-.34v0l-.13-.09v0l.12.1,0,0-.12-.1,0,0,.18.13.57.46h0l-.85-.47,0,0,.9.46,0,0-.5-.23-.19-.14,0,0,.14.1-.38-.18,0,0,.49.21.36.29-.19,0-.53-.23h0l.5.23h-.32l-.26-.05v0l.19,0h-.33l0,.1h0l-.08.71h-.11l-.08-.71-.3,0-3.48-.92-.05.14h0l-.08.32h0l-.07.22.16-.69h0l-.15.81-.08.2.08-1h0l-.05,1.09,0,0-.1-1.12h0l.1,1.14h0l-.29-1.12h0l.28,1.12h0l-.19-.48,0-.22h0v.15l-.2-.53h0l.24.61,0,.22-.42-.75h0l.43.77v.1l-.62-.77h0l.64.8h0l-.72-.74h0l.22.23,0,0,.1.15-.38-.34h0l.12.13,0,0-.07.08.26.22-.4-.27,0,0,.61.4.12.1h0l-.52-.3,0,0h0l-.22-.13v0l.26.16.24.21-.59-.26v0l.66.31.22.19h-.22l-.55-.26,0,0,.54.23H439l-.31-.07h0l.22.06h-.38V184H439v0l-.47,0,.47,0v.16l-.44.11.44-.1v.14l-.37.14.37-.13v.31l-.18.13.18-.13,0,1.08h.88v.14h-1l-.1,50.22h-.12l.08-44.2h0V190.7h0v-.11H438v0h-.37l0-.23h0l.18-.86-4.35-.78v.12h0l-.1.58.07-.7h0l-.08.91,0,.17,0-.64v0h0l0-.41h0l0,.47-.09.37-.09-.84h0l.12.89v.07l-.18-1h0l.19,1,0,.06-.17-.54,0-.14h0v0l-.14-.38h0l.17.48,0,.18-.3-.64h0l.3.72,0,.15-.48-.79h0l.5.83v0l-.12-.13-.26-.38,0,0h0l-.18-.26v0l.22.3.05.1-.26-.25,0,0-.1-.12,0,0,.08.12v0l.51.54h0l-.69-.61v0l.2.16.18.23-.44-.34v0l.53.42.13.13-.75-.45v0l.81.47.1.12h-.1v-.06l-.19-.05-.46-.3,0,0,.43.28-4.06-.7,0,.11h0l0,.14,0-.25,0,0-.11.72-.05.38v-1.11h0v.42h0l0,.18,0-.6h0l0,.69,0,.24-.21-.89h0l.22.93,0,.06-.13-.48,0-.14h0v0l-.12-.39h0l.16.51,0,.24-.3-.71h0l.34.79,0,.12-.5-.85,0,0,.52.85-.41-.55h0l-.19-.25,0,0,.24.31,0,.07-.23-.24-.07,0-.1-.1h0l.11.11h0l.5.54,0,0-.67-.63,0,0,.19.19h0l.2.26-.46-.38,0,0,.55.42.13.14-.75-.46v0l.81.49.1.13h0l-.72-.44,0,0,.66.42h-.19l-.59-.2v0l.52.17h-.74v.17h.15v0h.4v.1l-.54.07.54-.07v.15l-.47.17.47-.17V191l-.36.21.36-.21v1h1v0h-1.19L427,235.83l-5.83-.13.06-38.59h-1.15V197h.71v-.7l.14.08v0l-.14-.08v-.2l.23.08h0l-.25-.09v-.11l.28.08v0l-.28-.05v-.15l.31,0v0l-.31,0v-.05h.31v-.15h-.55l.43-.12-.45.12h-.2l.6-.26-.62.26h-.19l.26-.21.64-.26-.61.24.26-.19L421,195l-.28.13.11-.07-.66.36.67-.48h0l.08-.07-.08,0,0,0,.09-.08-.09.08v0l-.5.35.24-.33-.24.33-.37.26v0l.61-.56v0l0,0-.65.62h0l0,0h0l.05-.06v0l.7-.86-.7.85,0,0,.54-.88-.54.86v-.07l.4-.86-.4.84,0-.27.17-.65-.17.61v0l-.12.49h0l.05-1.15-.05,1.15h0l-.12-1.15.12,1.15h0l-.35-1.1.33,1-.4-1-2.42.84h0l-1.44,0,.09,0-.09,0H415l.61-.25-.61.24.26-.2-.45.21h0l.16-.11.57-.31L415,195l.39-.27,0-.07h0l-.5.36.26-.35-.26.35-.23.15h-.05l.47-.45-.48.46h0l.73-.78-.74.78h0l0,0v0l.55-.9-.55.88h0l0,.05h0l.06-.13v0l.41-.86-.41.84.05-.45.08-.47-.08.43h0l-.16.64h0l.11-1.1-.11,1.11h0l-.14-1.11.13,1.11h0l-.33-1.06.33,1.06h0l-.42-1.05-2.35.84.35.9h0l0-.1v.1h-.29v0h-.09V196h-.26v0h-.08l-.14,0h-.23v1H411l0,.13h-1.2v3.14l0,.14h0l-.14-1.14.12,1.14h0l-.24-1.14.24,1.13-.34-1,0-.09-2.25.7,0,.06-1.89,0,.35-.14-.35.14h-.06l.39-.18-.39.17.2-.15-.2.15,0,0h-.1v.05l-.14.06v-.05l.26-.19.33-.2-.3.18.19-.15,0-.05-.5.37h0l.59-.47-.55.41v0l.51-.42-.49.4h0l-.12.11-.16,0,.54-.73-.55.73h0l.49-.78-.49.78h0l.38-.85-.4.85,0-.33.14-.6-.14.56v0l-.09.37h0l.1-1-.1,1h-.05l-.13-1,.13,1h0l-.23-1,.21,1h0l-.33-.94-2.18.71.3.85h0v0h0v0l-.95.1v.09H401v.1h0V202h.23v.1H400v.44l-.14.14h0l-.44.43.51-.92-.47.8.4-.83-.4.76.1-.59-.1.6-.14.26h0l.24-1.13-.24,1.13h0l.12-1.15-.13,1.15h0l-.16-1.15.16,1.15-.28-1.13.24,1-.21-.56-.1-.34h0l0-.09-2.07.63,0,.07H395l.13-.06-.13.06h-.21l.31-.15-.31.15h-.16l.26-.14h0l.16-.09-.16.09-.26.14h0v0l-.08.06.41-.3-.05,0-.4.3h0l.5-.37-.52.37h-.07l.09-.07-.05.06.05-.07.43-.37-.41.36.2-.29-.2.3-.13.08h-.15l.5-.62-.5.63h0l.46-.71-.46.71h-.06l.4-.76-.4.76.09-.58-.09.58h0l-.08,0h0l.1-.91-.1.91h-.06l-.07-.91.07.91h-.05l-.2-.88.18.88h0l-.19-.54-.11-.31-2,.62.29.85h0v0h0l-1,.09v.19h-.13v.86h.22l0,.08h-1.21l0,31.55h-1.07l0,3.07h-3.74l0-24.24v-.51h-1.21v-1.15l-2.24,0,0,1.15h0l0-1.16-3.45,0v1.15l0-1.15h-.54l-3,0v1.11l0-1.11h-.66v-.06H371.4v1.14h0v-1.15l-3.58,0v1.15l0-1.15-.52,0-3.09,0v1.06h0l0-.24,0-.91-2.32,0,0,1.15h0l0-1.16-3.6,0,0,1.16v-1.16l-.59,0-3.1,0v1.15l0-1.15-1.3,0v0h-.78v1.14l0-1.14h-.49V190.16h-1.19l.12-1.15-4.93-.46-.09.83h0v-1.15l-21.84,0v1.14h0l-.05-.94-5.62.31.07,1.14h-1.18V184h-1.21l.09-1.15-4.67-.34v-1.7h-.07v-.36H310l-.14-1.13-10.66,1.15.14,1.15-.49-1.07-.84.35-.59.25,0-17h-1.2l1.2,0-.8-27.44h0v-3h-1.21l1.05-.57-1.29-2.2-1,.56h0v-1.16H293v.21l-.05-.07-1,.59v-1.15l-9.13-.05V131h-.39v-.7h-1v1.15h-1.21v3.05l-.87,28,1.21.05h-1.21l.09,49.33-.11,2.57H267.87l-.07-30.71h-1.21l.07-1.15-1.32-.07,0,.56h-.26l0,0,.05-1.1-3.49-.18v.23h-.16l-.05.94h0l.07-1.1-2.7-.13,0,.52h0l0-.52-1.33,0,0,.78-.15.06-.16-.37v-.15h0v-.18h-.15l0,0-.36.13.26.56,0,.5h-.14l-.06-.17-.09,0,.05.13h0l-.05-.13-.18.07,0,.06h-.78v1l.12,51.65h0l0,.66-1.68,0-.12-53.86h-1.21l.05-1.15-1.37-.06,0,.87,0-.87h0v-.28l-7.47-.36-.07,1.11h0l.07-1.16-1.4-.06-.05,1.15-.07-.13.05-1-1.14,0,0,.46-.09,0,.07.12,0,.52h0l0,0,0,0H240v1.25l.09,33.5h-6.39l0-5.12,0-.62v-.61l.1-21.63v-.61l.12-22.44V164.2l.13-22v-1.08L234.2,119v-.55l-11.42-7.32,0-7.66.07-20.32h-.45l-.09,20.37-5.36.77.07-20h-.41l-.08,20.27-.17,2.48-.07,22.6v1.09l-.07,22v.53l-17.63,11.44v.54l0,21.7v2.51H188.22v-1.58h.11v-.62l-.11,0V169.6l.11,0v-.62l-.12-.05v-1.81h-.78V154l.07-.08v-.6l-.07,0V151.2l-1,0-2.69,0-.17.22v.29l-2.31-.91-.47-.18v-1.06l.57-.05.77-.11.53-.14.25-.14v-2.41l-.06-.15-.34-.13-.63-.11-.87-.07-1-.05h-1l-10.37.15-1,0-1.08.08-.93.1-.72.12-.47.14-.17.16v2.38l.12.14.4.13.66.09.87.07h0V153l.1,0,.07,0v.27h-.79l-5.3-2.19-1.08-.61h-.21l-1.37,0h-.17l-1.28.62L151.45,153v-1.26h-.11v0l-2.18,0h-1.48v2.68h0l0,.08v12.9h-.22v1.91h0l0,0v.5l0,.05v17.45h.24v.51h-.24v17.06l0,.07v.49h0v8.06H134.26l-.59-103.84-22.85.31-.47,79.48H98l0-43.55-1.88-.08v-.29h-3v-1l-.5,0v-.12H91v-2.07H90v-1.33l-3.85-4.68,0-3.71-.37-.28.09-18.67-1.83,0-.1,18.69-.32.31,0,3.7L80.53,141v1.29h-.16l-.62.35v1.73h-.7l-.1.07-1.27.06v1h-.6l-.66.31-3.32,0v8.17H63.73l-.06-7.81h0l-.07-10.46h-.31V135l-.4-.6,0-9.84h-.33v-.8l-.58-.25-.06-8.3h-.31v-.69l-.59-.22,0-2.48H60.6v-.44l-.5-.41v-.2L60,107l-.93,0-1.35-3.21-8.23,0-1.41,3.24h-1v3.92l-.56.45v.24h-.29v2.67l-.68.24v.48h-.24l0,8.5-.72.28v.68h-.19l0,9.78-.56.82v.77h-.13l-.09,24H30.74l-.56-76.42h-.55l-.16-23.39h-.55l-.59-10.2-.51-5.05-1.74-6-1.93-3.31V33.79H24l-.09-.57-.13-.56-.17-.54-.22-.56L23.14,31l-.29-.52L22.51,30l-.37-.48-.41-.47-.45-.44-.47-.43-.51-.38v.12l.32.45.15.26-.5-.4v.13l.31.46.21.32,0,0-.51-.4v.13l.32.44.17.3h0l-.51-.4v.12l.32.45.24.39-.08-.08-.51-.38v.12l.31.45.2.31,0,0-.51-.39v.12l.31.45.2.31,0,0-.49-.38v.12l.31.44.28.46.26.48.23.47.19.48.18.5.06.21h-2V32.3h-.09V29l0-.36v-.61l0-.26v-.21l-.37,0v3.38H18v-2.6l0-.3v-.48h-.37v3.38h-1V27.78l0-.22h-.36v3.38H15.14V27.55H14.7v3.37h-1V27.55h-.36v3.37h-1V27.54H12v3.38h-.92V27.53h-.37V32.9h0l0,1H8.11l.05-.21.17-.49.2-.49.23-.47L9,31.72l.28-.45.31-.44v-.12l-.45.35.16-.24.31-.46v-.12l-.47.36.17-.26.31-.44v-.13l-.49.39.19-.3.31-.45v-.13l-.45.35.15-.23L9.65,29v-.13l-.47.37.16-.27.32-.45v-.12l-.43.33.12-.2L9.67,28v-.12l-.51.38-.47.42-.45.44-.41.45-.37.49-.34.5-.29.5-.25.53-.22.55-.17.55-.13.56L6,33.84v.43H6v.13L1.76,51.09,1.26,60H.79L.55,83.41H.12L0,83.92l0,.51S.27,245.25.55,257.77H841.89Z"/><polygon class="cls-3" points="827.8 231.63 826.91 231.72 826.91 220.07 823.43 220.07 823.43 216.67 817.77 216.67 817.77 213.3 808.79 213.3 808.79 216.67 805.47 216.67 805.47 220.07 794.97 220.07 794.97 233.51 791.9 233.51 785.24 231.52 775.61 229.75 765.88 229.01 764.29 229 755.41 229.29 753.92 229.37 751.92 229.52 751.82 229.52 751 228.68 750.26 228.29 747.02 229.42 747.02 229.89 747.04 229.99 747.02 229.99 747.02 229.89 746.99 229.42 743.75 228.29 742.95 228.68 742.09 229.52 742.09 229.52 740.08 229.36 738.59 229.27 735.5 229.17 735.5 188.16 732 188.16 732 180.38 727.73 180.38 727.73 188.16 718.72 188.16 718.72 180.38 716.62 180.38 716.62 188.16 711.03 188.16 711.03 201.6 701.36 201.6 701.36 181.93 698.3 181.93 698.3 181.47 698.11 181.47 698.11 175.46 695.82 175.46 695.82 174.07 695.82 173.64 695.82 172.6 695.82 172.35 695.82 161.96 695.17 161.96 695.06 162.63 694.49 162.63 694.49 157.07 694.25 157.07 694.23 157.79 694.25 157.79 694.25 162.63 693.59 162.63 693.59 157.07 693.35 157.06 693.33 157.79 693.35 157.79 693.35 162.63 692.69 162.63 692.68 157.06 692.43 157.06 692.43 157.79 692.43 157.79 692.43 162.63 691.78 162.63 691.78 157.06 691.51 157.06 691.51 157.79 691.51 157.79 691.51 162.63 690.88 162.62 690.88 157.06 690.61 157.06 690.61 157.79 690.61 157.79 690.61 162.62 689.96 162.62 689.96 161.95 689.3 161.94 689.23 164.75 689.23 173.05 679.94 173.03 679.94 173.26 679.94 174.29 679.94 175.43 670.53 175.42 670.53 178.43 670.53 181.63 669.37 181.66 663.47 181.91 658.35 182.26 658.35 185.83 658.11 185.84 658.11 185.96 658.35 186.16 658.35 188.22 658.11 188.23 658.11 188.33 658.35 188.51 658.37 190.59 658.11 190.6 658.11 190.72 658.37 190.86 658.37 195.16 656.44 195.16 656.44 189.45 651.46 189.45 651.46 191.86 646.65 191.86 646.65 195.16 641.81 195.16 641.81 207.8 641.63 207.81 641.63 207.62 639.33 207.4 639.35 206.34 637.41 206.14 637.43 205.06 635.49 204.84 635.51 203.78 633.59 203.54 633.6 202.51 631.24 202.21 627.32 202.22 624.26 202.53 623.88 202.95 623.86 203.69 622.51 203.81 622.03 204.34 622.03 204.99 620.75 205.09 620.2 205.75 620.2 206.29 618.98 206.39 618.36 207.12 618.36 207.57 616.91 207.69 616.75 207.9 615.21 207.76 610.76 208.12 610.75 211.61 610.64 228.29 604.45 228.29 604.52 211.21 604.52 211.21 604.52 207.6 600.13 207.24 598.48 207.38 598.41 207.17 596.56 207.02 596.56 206.62 596.25 205.84 594.73 205.71 594.73 205.21 594.41 204.53 592.89 204.38 592.89 203.79 592.6 203.21 591.04 203.06 591.02 202.34 590.78 201.92 587.75 201.6 583.75 201.61 581.25 201.94 581.25 203.01 579.33 203.25 579.33 204.34 577.39 204.57 577.4 205.68 575.43 205.91 575.45 206.99 573.15 207.23 573.15 207.41 571.6 207.3 568 207.69 568.05 211.28 568.5 240.55 568.34 240.44 568.32 239.65 567.9 234.25 567.9 233.82 567.53 233.82 567.46 233.84 567.46 234.26 567.42 234.98 566.07 234.98 566.07 234.85 565.57 234.18 565.53 231.52 565.52 230.52 565.1 230.52 565.07 226.06 565.03 226.05 564.86 226.03 564.76 226.03 563.86 223.11 564 223.11 564 222.33 563.58 222.33 563.58 222.3 563.54 222.33 563.11 222.33 563.11 222.75 562.72 222.75 562.72 223.52 562.84 223.52 562.23 225.63 561.14 218.06 561.54 218.04 561.61 217.92 561.61 217.83 561.61 217.3 561.04 217.25 560.38 211.5 560.8 211.5 560.78 209.9 560.76 207.6 559.05 207.6 559.07 209.9 559.07 211.5 559.48 211.5 559.48 211.51 558.91 217.25 558.39 217.3 558.34 217.4 558.34 217.94 558.34 218.04 558.82 218.08 557.86 225.6 557.09 223.1 557.23 223.1 557.23 222.32 556.8 222.32 556.8 222.28 556.78 222.32 556.33 222.32 556.35 222.76 556.13 222.76 556.13 223.52 556.24 223.52 555.52 226.05 555.45 226.05 555.38 226.06 555.38 226.11 555.35 226.12 555.35 226.37 555.26 226.38 555.19 226.4 555.19 226.45 555.15 226.46 555.17 230.52 554.96 230.52 554.96 230.57 554.93 230.57 554.93 230.73 554.79 230.73 554.79 230.78 554.76 230.78 554.77 234.31 554.27 234.94 554.27 234.98 553.06 234.98 553.05 234.46 552.46 234.46 552.46 232.04 552.03 232.04 552.03 232.04 551.94 232.04 550.87 223.8 551.44 223.8 551.44 221.73 549.91 221.73 549.91 223.8 550.48 223.8 550.48 223.82 549.45 232.04 548.94 232.04 548.94 232.14 548.94 234.46 548.36 234.46 548.36 234.98 547.58 234.98 547.58 234.94 547.54 234.89 547.54 234.85 547.06 234.25 547.06 231.24 547.06 231.22 547.06 231.21 547.02 231.13 547.02 231.05 547.01 231.04 547.01 231.02 546.54 230.06 546.54 227.06 546.49 226.86 546.49 226.75 545.5 223.51 545.69 223.51 545.69 222.75 545.6 222.75 545.6 222.32 545.17 222.32 545.15 222.28 545.15 222.32 544.72 222.32 544.72 223.1 544.83 223.1 544.83 223.46 544.05 226.02 543.04 218.35 543.53 218.31 543.53 218.22 543.53 217.68 543.49 217.58 542.98 217.53 542.4 211.8 542.39 211.78 542.8 211.78 542.8 210.18 542.82 207.88 541.11 207.88 541.11 210.18 541.09 211.78 541.49 211.78 540.85 217.51 540.29 217.58 540.29 218.11 540.29 218.2 540.33 218.31 540.76 218.35 539.65 226.08 538.89 223.51 539.1 223.51 539.12 222.75 538.84 222.75 538.84 222.32 538.39 222.32 538.37 222.28 538.37 222.32 537.96 222.32 537.96 223.1 538.16 223.1 537.04 226.75 537 229.94 536.43 231.02 536.42 234.18 535.9 234.85 535.9 234.98 533.93 234.98 533.89 234.26 533.91 233.84 533.84 233.82 533.46 233.82 533.46 234.25 533.11 239.65 533.11 240.43 532.56 240.84 532.44 191.18 527.38 191.18 527.38 189.37 509.12 189.37 507.82 191.18 505.19 191.18 502.87 194.77 502.92 240.02 502.59 240.02 502.59 239.96 502.11 239.81 501.31 239.81 501.36 238.68 501.16 238.68 501.1 238.67 501.1 238.68 500.95 238.68 500.9 239.81 499.67 239.81 499.65 239.81 499.69 239.02 499.34 238.91 498.61 238.9 498.66 237.93 498.47 237.93 498.44 237.91 498.44 237.93 498.3 237.93 498.26 238.9 496.83 238.9 497.04 231.62 495.91 231.48 493.65 231.41 493.44 231.33 493.44 231.15 492.83 231.15 492.52 231.05 492.52 230.76 491.55 230.63 491.05 230.59 490.32 229.56 489.2 228.56 487.83 227.78 486.29 227.21 484.65 226.89 484.66 225.32 484.82 225.31 484.87 225.13 484.87 225.08 484.66 224.97 484.51 224.74 484.3 224.56 484.04 224.4 483.73 224.3 483.42 224.24 483.4 224.24 483.42 223.36 483.11 223.36 483.11 223.32 483.11 223.36 482.8 223.37 482.8 224.26 482.49 224.3 482.17 224.41 481.91 224.56 481.71 224.76 481.55 224.98 481.32 225.09 481.32 225.14 481.34 225.32 481.55 225.32 481.55 226.9 479.92 227.24 478.4 227.81 477.05 228.59 475.96 229.59 475.22 230.63 474.79 230.65 473.73 230.78 473.73 231.08 473.44 231.17 473.28 231.17 473.28 231.21 472.61 231.43 470.58 231.51 469.34 231.63 469.46 238.83 467.87 238.82 467.85 237.86 467.71 237.86 467.71 237.85 467.68 237.86 467.5 237.86 467.52 238.82 466.81 238.82 466.5 238.94 466.52 239.71 465.56 239.71 465.53 238.59 465.39 238.59 465.39 238.59 465.32 238.59 465.13 238.59 465.15 239.71 464.37 239.7 463.95 239.84 463.95 240.02 463.35 240.02 463.4 194.77 461.36 191.18 458.54 191.18 457.38 189.37 439.11 189.37 439.11 191.18 434.09 191.18 433.97 242.1 432.14 242.12 431.98 191.35 432.05 191.34 432.34 191.13 432.34 190.49 431.98 190.28 431.98 189.14 432.03 189.11 432.34 188.89 432.34 188.76 431.96 188.55 431.96 186.79 432.03 186.77 432.33 186.52 432.33 185.24 431.93 184.97 430.85 184.72 429.13 184.49 427.2 184.33 397.01 184.65 396.99 196.07 396.96 215.88 395.57 215.88 395.57 214.44 393.02 214.44 393.02 204.42 389.38 204.42 389.38 202.53 382.43 202.53 382.43 204.42 379.04 204.42 379.04 234.58 377.48 234.55 377.41 232.95 378.08 232.93 378.1 205.83 354.2 199.12 354.02 205.84 330.57 205.85 330.52 232.95 331.14 232.98 331.14 234.53 327.47 234.53 326.75 234.53 326.75 234.58 318.87 234.58 317.99 234.55 317.92 215.53 306.11 215.53 305.95 234.56 305.95 234.82 306.73 234.87 306.4 244.22 293.94 244.38 293.94 180.31 290.35 179.81 275.43 179.81 273.02 180.12 272.95 180.39 272.95 181.45 272.68 181.49 272.61 181.75 272.78 226.83 266.66 226.83 266.52 217.87 266.67 217.85 267.11 217.8 267.31 217.72 267.33 217.66 267.3 215.97 267.09 215.92 266.66 215.86 266.05 215.82 265.31 215.79 264.7 215.79 264.63 210.44 263.92 204.99 263.25 210.47 263.3 215.83 262.76 215.84 262 215.9 261.39 215.96 260.98 216.03 260.77 216.11 260.79 217.81 260.83 217.88 261.07 217.94 261.5 217.98 261.64 217.99 261.88 244.88 257.64 244.88 257.99 152.95 257.76 152.69 257.19 152.42 256.31 152.21 255.2 152.03 253.9 151.93 252.54 151.9 223.09 151.9 221.76 151.93 220.56 152.04 219.57 152.21 218.88 152.43 218.54 152.69 217.52 224.55 207.98 223.74 207.98 223.09 204.61 223.14 204.61 223.07 204.09 223.07 203.26 223.08 202.14 223.09 200.84 223.1 200.46 223.11 199.25 223.01 198.97 190.78 198.57 190.78 198.52 186.81 197.71 186.79 194.06 186.79 193.83 158.95 193.8 154.6 193.78 153.65 192.9 153.54 170.84 153.68 169.87 153.79 169.88 154.74 169.89 159.09 170 186.36 169.54 186.34 165.31 186.3 160.37 186.27 158.76 186.26 158.95 167.61 155.47 167.29 122.28 167.42 122.52 121.33 122.17 120.82 122.18 119.68 122.19 118.09 122.2 116.41 118.93 111.31 118.02 111.13 94.39 111.44 92.51 112.28 91.74 113.22 91.71 114.98 91.69 116.64 91.69 117.87 91.33 118.3 91.31 119.63 90.34 208.15 85.76 200.79 85.64 184.63 84.95 175.21 84.79 153.68 83.54 153.49 83.53 153.49 83.52 152.42 82.14 152.19 81.99 152.19 81.99 151.09 80.61 150.86 80.47 150.86 80.47 149.89 79.1 149.67 78.97 149.67 78.97 148.5 77.58 148.26 72.11 148.26 70.69 148.49 70.7 149.67 70.66 149.67 69.24 149.89 69.24 150.86 69.21 150.86 67.78 151.09 67.79 152.19 67.74 152.19 66.31 152.4 66.32 153.52 66.15 153.52 64.87 153.71 64.89 175.24 64.23 184.64 64.25 207.03 62.62 211.28 61.74 211.3 61.74 211.44 59.93 211.47 59.93 211.61 57.88 211.67 57.88 211.82 56.6 211.85 56.48 154.67 56.44 134.75 43.15 132.43 42.77 136.34 42.97 186.74 35.95 186.83 35.94 185.29 35.96 185.29 35.92 181.7 36.16 181.7 36.53 181.68 36.85 181.65 37.1 181.6 37.27 181.57 37.35 181.52 37.04 159.26 37.04 159.25 37.02 159.19 36.9 159.12 36.69 159.06 36.41 159.03 36.07 159 35.7 159 35.59 159 35.53 159 35.44 159 24.83 141.6 13.85 141.67 3.5 159.16 3.4 159.16 3.35 159.16 3.33 159.16 2.95 159.16 2.6 159.18 2.31 159.23 2.09 159.27 1.95 159.34 1.9 159.4 1.83 181.63 1.89 181.68 2.04 181.72 2.28 181.75 2.58 181.78 2.93 181.8 3.15 181.8 3.14 185.39 3.18 185.42 3.28 185.44 3.18 226.12 0.7 226.15 0.67 244.88 1.18 261.19 250.82 261.19 293.94 261.19 841.89 261.19 841.89 231.92 827.8 231.63"/></g></g></svg>