<svg xmlns="http://www.w3.org/2000/svg" viewBox="0 0 127.66 118.82"><defs><style>.cls-1{fill:#efefef;}</style></defs><g id="Layer_2" data-name="Layer 2"><g id="weather_icons" data-name="weather icons"><path class="cls-1" d="M62.89,99.18a39.44,39.44,0,1,1,32.7-17.39,3,3,0,1,1-5-3.36,33.48,33.48,0,1,0-8.09,8.37,3,3,0,1,1,3.53,4.86A39.16,39.16,0,0,1,62.89,99.18Z"/><path class="cls-1" d="M63.83,0a4.89,4.89,0,1,1-4.89,4.89A4.89,4.89,0,0,1,63.83,0Z"/><path class="cls-1" d="M98.82,8.74a4.89,4.89,0,1,1-6.68,1.77A4.88,4.88,0,0,1,98.82,8.74Z"/><path class="cls-1" d="M120.35,30.82a4.89,4.89,0,1,1-6.64-1.95A4.89,4.89,0,0,1,120.35,30.82Z"/><path class="cls-1" d="M127.66,59.38a4.89,4.89,0,1,1-4.92-4.86A4.89,4.89,0,0,1,127.66,59.38Z"/><path class="cls-1" d="M120.7,88a4.89,4.89,0,1,1-2-6.62A4.89,4.89,0,0,1,120.7,88Z"/><path class="cls-1" d="M99.22,110.09a4.89,4.89,0,1,1,1.8-6.68A4.88,4.88,0,0,1,99.22,110.09Z"/><circle class="cls-1" cx="63.83" cy="113.93" r="4.89"/><path class="cls-1" d="M63.83,118.82a4.89,4.89,0,1,1,4.89-4.89A4.89,4.89,0,0,1,63.83,118.82Z"/><path class="cls-1" d="M28.84,110.09a4.89,4.89,0,1,1,6.68-1.78A4.9,4.9,0,0,1,28.84,110.09Z"/><path class="cls-1" d="M7.31,88A4.89,4.89,0,1,1,14,90,4.9,4.9,0,0,1,7.31,88Z"/><path class="cls-1" d="M0,59.45A4.89,4.89,0,1,1,4.92,64.3,4.89,4.89,0,0,1,0,59.45Z"/><path class="cls-1" d="M7,30.85a4.89,4.89,0,1,1,2,6.62A4.89,4.89,0,0,1,7,30.85Z"/><path class="cls-1" d="M28.43,8.73a4.89,4.89,0,1,1-1.79,6.68A4.89,4.89,0,0,1,28.43,8.73Z"/><path class="cls-1" d="M63.83,0a4.89,4.89,0,1,1-4.89,4.89A4.89,4.89,0,0,1,63.83,0Z"/></g></g></svg>