<svg xmlns="http://www.w3.org/2000/svg" viewBox="0 0 177.8 132.93"><defs><style>.cls-1{fill:#efefef;}</style></defs><g id="Layer_2" data-name="Layer 2"><g id="weather_icons" data-name="weather icons"><path class="cls-1" d="M63.83,9.78a5.17,5.17,0,0,0,1-.1,4.89,4.89,0,0,0,0-9.58,4.46,4.46,0,0,0-1-.1,4.89,4.89,0,0,0,0,9.78Z"/><path class="cls-1" d="M93.91,17.19a4.89,4.89,0,1,0-1.77-6.68A4.88,4.88,0,0,0,93.91,17.19Z"/><path class="cls-1" d="M33.32,17.2a4.89,4.89,0,1,0-6.68-1.79A4.89,4.89,0,0,0,33.32,17.2Z"/><path class="cls-1" d="M118.4,37.45a4.89,4.89,0,1,0-6.64-2A4.88,4.88,0,0,0,118.4,37.45Z"/><path class="cls-1" d="M75.35,28.69a33.47,33.47,0,0,1,20.8,34.52,32,32,0,0,1,3.58,2.63c.77-.89,1.59-1.74,2.44-2.57.1-1.16.16-2.34.16-3.53A39.27,39.27,0,0,0,77.59,23.13a3,3,0,1,0-2.24,5.56Z"/><path class="cls-1" d="M9.78,59.38A4.89,4.89,0,1,0,4.92,64.3,4.91,4.91,0,0,0,9.78,59.38Z"/><path class="cls-1" d="M37.7,86a22.87,22.87,0,0,1,5.46.67A33.42,33.42,0,0,1,62.89,26.3a3,3,0,0,0,0-6,39.41,39.41,0,0,0-29,66.08A22.26,22.26,0,0,1,37.7,86Z"/><path class="cls-1" d="M15.89,83.32A4.89,4.89,0,1,0,14,90,4.89,4.89,0,0,0,15.89,83.32Z"/><path class="cls-1" d="M9,37.47a4.89,4.89,0,1,0-2-6.62A4.9,4.9,0,0,0,9,37.47Z"/><path class="cls-1" d="M132,48.08A45.73,45.73,0,0,0,99.4,61.78,34,34,0,0,0,45.89,84.39,25.52,25.52,0,0,0,24.66,130.5a3,3,0,0,0,1.49.43l82.05,1.27a3,3,0,1,0,.09-6l-81.22-1.26a19.52,19.52,0,0,1,20-33.5,3,3,0,0,0,4.44-2.57A28,28,0,0,1,97.78,68.12a3,3,0,0,0,4.21-.31,39.76,39.76,0,1,1,52.14,59.1l-26.16-.4h0a3,3,0,0,0,0,6l27.08.42H155a3,3,0,0,0,1.61-.48A45.76,45.76,0,0,0,132,48.08Z"/></g></g></svg>