<svg xmlns="http://www.w3.org/2000/svg" viewBox="0 0 165.63 84.84"><defs><style>.cls-1{fill:#efefef;}</style></defs><g id="Layer_2" data-name="Layer 2"><g id="weather_icons" data-name="weather icons"><path class="cls-1" d="M67.39,13.32A28.07,28.07,0,0,1,85.6,20a3,3,0,0,0,4.22-.31,39.75,39.75,0,0,1,60.54.52,3,3,0,0,0,4.6-3.86A45.76,45.76,0,0,0,87.22,13.7a34,34,0,0,0-53.5,22.61A25.52,25.52,0,0,0,12.48,82.42a3,3,0,0,0,1.49.42L29,83.08h0a3,3,0,0,0,0-6L14.9,76.86a19.52,19.52,0,0,1,20-33.5,3,3,0,0,0,4.44-2.57A28.21,28.21,0,0,1,67.39,13.32Z"/><path class="cls-1" d="M163.28,31.26a3,3,0,1,0-5.69,1.9A39.81,39.81,0,0,1,142,78.83L47.13,77.36h-.05a3,3,0,0,0,0,6l95.75,1.48h.05a3,3,0,0,0,1.61-.47,45.8,45.8,0,0,0,18.84-53.11Z"/></g></g></svg>