<svg xmlns="http://www.w3.org/2000/svg" viewBox="0 0 165.63 117.04"><defs><style>.cls-1{fill:#efefef;}</style></defs><g id="Layer_2" data-name="Layer 2"><g id="weather_icons" data-name="weather icons"><path class="cls-1" d="M36.88,77.2l-22-.34a19.52,19.52,0,0,1,20-33.5,3,3,0,0,0,4.45-2.57A28,28,0,0,1,85.61,20a3,3,0,0,0,4.21-.31,39.76,39.76,0,0,1,63.7,4.84,3,3,0,1,0,5.07-3.2A45.75,45.75,0,0,0,87.23,13.7,34,34,0,0,0,33.72,36.31,25.52,25.52,0,0,0,12.49,82.42a2.89,2.89,0,0,0,1.49.42l22.8.36h0a3,3,0,0,0,.05-6Z"/><path class="cls-1" d="M164.26,34.63a3,3,0,1,0-5.82,1.45A39.82,39.82,0,0,1,142,78.83l-20.53-.32c-.07-15.83-13.46-33.16-14-33.9a3,3,0,0,0-4.91.26c-.44.72-11,17.7-11.22,33.17l-14.42-.22A106.51,106.51,0,0,0,64.36,56.53a3,3,0,0,0-4.9.25c-.58.92-14,22.62-14,42.06a18.2,18.2,0,0,0,36.4,0,48.22,48.22,0,0,0-2.7-15l13.12.21a15.08,15.08,0,0,0,28,.43l22.54.35h.05a3,3,0,0,0,1.61-.47,45.79,45.79,0,0,0,19.82-49.74ZM75.85,98.84a12.2,12.2,0,0,1-24.4,0c0-13.09,7.09-28,10.83-34.91A106.12,106.12,0,0,1,70.2,77.71c.92,1.94,1.79,4,2.55,6h0A44.53,44.53,0,0,1,75.85,98.84Zm30.49-11.12a9.07,9.07,0,0,1-7.2-3.56,9,9,0,0,1-1.89-5.53c0-.17,0-.33,0-.5.16-9.61,5.07-20.38,8-26.06,3.71,5.62,10,16.59,10.12,26.35v.21a9.11,9.11,0,0,1-9.09,9.09Z"/></g></g></svg>