<svg xmlns="http://www.w3.org/2000/svg" viewBox="0 0 157.73 135.06"><defs><style>.cls-1{fill:#efefef;}</style></defs><g id="Layer_2" data-name="Layer 2"><g id="weather_icons" data-name="weather icons"><path class="cls-1" d="M73.58,25.22a32.52,32.52,0,0,0-41.5,26.13A24.41,24.41,0,0,0,11.94,95.51a3,3,0,0,0,1.49.42l44,.68h0a3,3,0,0,0,.05-6l-43.14-.67a18.41,18.41,0,0,1,18.9-31.56,3,3,0,0,0,4.44-2.57A26.54,26.54,0,0,1,71.85,31a3,3,0,0,0,1.73-5.74Z"/><path class="cls-1" d="M138.92,24.64a3,3,0,0,0-3.41,4.93A37.67,37.67,0,0,1,135,91.82l-33.52-.52h0a3,3,0,0,0,0,6l34.44.53h0a3,3,0,0,0,1.61-.47,43.65,43.65,0,0,0,1.4-72.72Z"/><path class="cls-1" d="M80.14,135.06H80a3,3,0,0,1-2.86-2.56L65,49.45a3,3,0,0,1,4.1-3.22L83.7,52.17,79.89,3.23a3,3,0,0,1,4.19-3l43.62,19a3,3,0,0,1,1.67,3.6L112.31,80.41a3,3,0,0,1-3.91,2L95.23,77.51l-12.16,55.2A3,3,0,0,1,80.14,135.06Zm-8.47-81.3,9.06,61.68,9.38-42.58a3,3,0,0,1,1.49-2,3,3,0,0,1,2.48-.18l13.39,5,15.4-51.95L86.26,7.74l3.79,48.8a3,3,0,0,1-4.12,3Z"/></g></g></svg>