<svg xmlns="http://www.w3.org/2000/svg" viewBox="0 0 165.63 84.84"><defs><style>.cls-1{fill:#efefef;}</style></defs><g id="Layer_2" data-name="Layer 2"><g id="weather_icons" data-name="weather icons"><path class="cls-1" d="M112.91,78.38l-98-1.52A19.64,19.64,0,0,1,6,60.48a3,3,0,0,0-6,0A25.63,25.63,0,0,0,12.49,82.42a3,3,0,0,0,1.48.42l98.85,1.54h.05a3,3,0,0,0,0-6Z"/><path class="cls-1" d="M119.86,0A45.75,45.75,0,0,0,87.22,13.7a34,34,0,0,0-53.5,22.61,25.55,25.55,0,0,0-28.2,8.31,3,3,0,1,0,4.7,3.73,19.53,19.53,0,0,1,24.68-5,3,3,0,0,0,4.44-2.57A28,28,0,0,1,85.6,20a3,3,0,0,0,4.22-.31A39.76,39.76,0,1,1,142,78.83l-15.65-.25h0a3,3,0,0,0,0,6l16.58.26h0a3,3,0,0,0,1.62-.47A45.76,45.76,0,0,0,119.86,0Z"/><path class="cls-1" d="M123.43,54.07l8.2,5.78a3,3,0,1,0,3.46-4.9l-8.8-6.21L136,44a3,3,0,0,0-2.66-5.38l-9.86,4.87V31.59a3,3,0,0,0-6,0V42.5l-8.2-5.78a3,3,0,1,0-3.45,4.91l8.8,6.2-9.66,4.77A3,3,0,0,0,107.58,58l9.85-4.86v11a3,3,0,1,0,6,0Z"/></g></g></svg>