<svg xmlns="http://www.w3.org/2000/svg" viewBox="0 0 165.63 103.98"><defs><style>.cls-1{fill:#efefef;}</style></defs><g id="Layer_2" data-name="Layer 2"><g id="weather_icons" data-name="weather icons"><path class="cls-1" d="M119.86,0A45.75,45.75,0,0,0,87.22,13.7a34,34,0,0,0-53.5,22.61,25.55,25.55,0,0,0-28.2,8.31,3,3,0,1,0,4.7,3.73,19.53,19.53,0,0,1,24.68-5,3,3,0,0,0,4.44-2.57A28,28,0,0,1,85.6,20a3,3,0,0,0,4.22-.31A39.76,39.76,0,1,1,142,78.83L82.41,77.9h0a3,3,0,0,0-.05,6l60.46.94h.05a3,3,0,0,0,1.61-.47A45.76,45.76,0,0,0,119.86,0Z"/><path class="cls-1" d="M38.86,77.23l-24-.37A19.64,19.64,0,0,1,6,60.48a3,3,0,0,0-6,0A25.66,25.66,0,0,0,12.48,82.42a3,3,0,0,0,1.49.42l24.8.39h0a3,3,0,0,0,0-6Z"/><path class="cls-1" d="M103.56,56.62a3,3,0,0,0,4,1.36l9.85-4.86v11a3,3,0,1,0,6,0v-10l8.21,5.78a3,3,0,0,0,1.72.55A3,3,0,0,0,135.09,55l-8.8-6.21L136,44a3,3,0,0,0-2.66-5.38l-9.86,4.87V31.59a3,3,0,0,0-6,0V42.5l-8.2-5.78a3,3,0,1,0-3.45,4.91l8.8,6.2-9.66,4.77A3,3,0,0,0,103.56,56.62Z"/><path class="cls-1" d="M58.85,53.73a3,3,0,0,0-2.39,1.4c-.46.74-11.23,18.14-11.23,33.76a15.09,15.09,0,1,0,30.18,0c0-15.86-13.47-33.28-14-34A3,3,0,0,0,58.85,53.73ZM60.32,98a9.1,9.1,0,0,1-9.09-9.09c0-9.74,5-20.77,8.06-26.56C63,68,69.41,79.08,69.41,88.89A9.1,9.1,0,0,1,60.32,98Z"/></g></g></svg>